<?xml version="1.0" standalone="no"?>
<!DOCTYPE svg PUBLIC "-//W3C//DTD SVG 20010904//EN"
 "http://www.w3.org/TR/2001/REC-SVG-20010904/DTD/svg10.dtd">
<svg version="1.0" xmlns="http://www.w3.org/2000/svg"
 width="300.000000pt" height="300.000000pt" viewBox="0 0 300.000000 300.000000"
 preserveAspectRatio="xMidYMid meet">
<metadata>
Created by potrace 1.10, written by Peter Selinger 2001-2011
</metadata>
<g transform="translate(0.000000,300.000000) scale(0.050000,-0.050000)"
fill="#000000" stroke="none">
<path d="M1215 5986 c36 -5 94 -5 130 0 36 4 7 8 -65 8 -71 0 -101 -4 -65 -8z"/>
<path d="M2985 5344 c-25 -4 -45 -14 -45 -23 0 -9 -19 -21 -42 -27 -23 -6 -37
-19 -32 -28 6 -9 -3 -39 -19 -66 -26 -46 -28 -46 -17 -5 10 35 6 42 -19 33
-17 -7 -27 -19 -22 -27 5 -8 -26 -13 -68 -13 -42 1 -73 -5 -67 -14 5 -8 -14
-11 -42 -6 -29 5 -52 2 -52 -7 0 -8 -38 -21 -85 -27 -47 -7 -114 -27 -150 -44
-35 -18 -75 -26 -88 -18 -14 8 -18 6 -10 -7 16 -26 -36 -48 -77 -32 -19 7 -30
-1 -30 -22 0 -25 -11 -30 -43 -20 -26 8 -37 6 -29 -7 18 -29 -43 -85 -79 -71
-18 7 -29 -1 -29 -22 0 -18 -8 -28 -18 -22 -10 6 -22 2 -26 -10 -4 -12 -23
-24 -43 -26 -20 -3 -44 -19 -54 -34 -10 -16 -19 -19 -19 -7 0 54 -60 16 -72
-47 -8 -43 -29 -74 -56 -85 -23 -10 -34 -18 -25 -19 10 0 6 -15 -8 -32 -20
-25 -29 -26 -42 -5 -13 20 -16 20 -17 1 0 -14 -2 -32 -4 -40 -8 -26 -111 -105
-136 -105 -15 0 -20 -16 -14 -39 5 -22 -3 -50 -18 -63 -15 -12 -28 -35 -28
-50 0 -16 -9 -28 -19 -28 -11 0 -37 -40 -59 -90 -22 -49 -50 -90 -62 -90 -12
0 -17 -9 -10 -19 6 -11 -11 -65 -39 -120 -28 -55 -51 -118 -51 -140 0 -23 -12
-41 -26 -41 -16 0 -27 -28 -28 -74 -1 -41 -12 -78 -24 -82 -29 -10 -28 -64 0
-64 16 0 17 -8 3 -25 -11 -14 -17 -41 -14 -61 3 -20 -2 -62 -11 -95 -10 -34
-9 -63 1 -70 10 -6 14 -69 9 -141 -7 -102 -2 -132 21 -141 16 -6 29 -24 29
-39 0 -15 11 -28 25 -28 18 0 26 55 27 205 8 867 652 1641 1526 1835 223 49
219 51 135 -67 -92 -129 -198 -216 -508 -413 l-267 -170 2 -860 c1 -860 1
-860 -42 -887 l-43 -27 9 572 c8 469 5 572 -17 572 -21 0 -27 -114 -32 -593
-4 -453 -11 -596 -30 -602 -20 -7 -25 127 -25 622 0 674 -7 733 -90 733 l-50
0 -5 -495 c-2 -272 -5 -607 -5 -743 0 -180 -7 -251 -25 -257 -19 -6 -26 144
-30 678 -3 446 -12 685 -25 682 -36 -9 -35 -1899 1 -1913 24 -9 29 21 29 178
0 149 6 187 27 178 20 -7 26 -64 25 -232 -2 -162 5 -225 23 -231 19 -6 25 43
25 206 0 192 3 211 31 188 26 -21 31 -66 27 -243 -3 -146 3 -225 18 -240 19
-19 24 31 24 212 0 212 3 234 31 211 25 -21 30 -69 28 -256 -3 -163 3 -234 20
-239 17 -6 22 52 17 224 -3 128 -3 232 1 232 4 0 42 -25 86 -55 l80 -55 -9
-190 c-5 -104 -15 -205 -23 -223 -11 -26 17 -48 133 -103 242 -115 228 -119
215 61 -19 261 -11 269 138 142 124 -105 126 -108 117 -194 -13 -119 -54 -158
-55 -52 -2 102 -35 190 -38 98 -3 -128 -53 -147 -71 -27 l-16 108 -17 -119
c-9 -65 -12 -122 -7 -127 13 -14 214 -67 338 -90 12 -2 18 10 14 26 -5 17 -13
60 -18 97 l-9 67 54 -35 c42 -27 52 -49 49 -97 -5 -64 38 -167 88 -209 24 -20
53 1 162 119 122 132 132 139 132 89 0 -33 9 -51 24 -46 13 4 24 42 25 84 0
43 12 81 26 86 17 6 25 -17 25 -73 0 -57 9 -82 28 -82 22 0 28 52 29 253 1
148 10 262 22 274 15 15 21 -59 21 -245 0 -203 6 -263 25 -257 18 6 25 82 26
285 0 200 7 279 25 285 18 6 24 -58 24 -263 0 -226 5 -272 29 -272 25 0 31 52
35 303 5 237 12 306 34 313 22 7 26 -43 18 -294 -5 -207 -1 -300 13 -296 13 5
25 129 31 324 7 228 17 319 35 325 19 6 25 -63 25 -303 0 -195 8 -312 20 -312
13 0 20 123 20 328 0 266 6 332 30 352 26 22 30 -13 30 -298 0 -281 4 -322 32
-322 28 0 31 40 26 344 -5 256 0 345 18 351 18 6 24 -72 24 -325 0 -258 6
-331 25 -325 19 6 25 96 26 354 1 279 7 348 30 361 25 14 28 -32 22 -324 -6
-280 -2 -339 20 -332 21 8 27 84 29 357 1 242 9 349 25 355 14 4 24 -19 26
-59 3 -59 5 -56 15 21 25 188 67 121 56 -91 -12 -255 4 -474 34 -449 42 35 19
2541 -23 2556 -19 7 -187 103 -372 214 -354 213 -409 261 -564 497 l-89 135
85 -11 c683 -97 1302 -629 1533 -1319 42 -127 31 -1229 -13 -1273 -20 -20 -25
92 -25 559 0 376 -7 584 -20 584 -13 0 -20 -236 -20 -668 0 -569 -4 -671 -30
-692 -25 -21 -51 1035 -35 1455 0 15 -26 25 -67 25 l-68 0 -2 -655 c-1 -360 0
-754 2 -875 3 -218 -8 -290 -42 -290 -10 0 -18 369 -18 860 0 751 -4 860 -30
860 -26 0 -30 -112 -30 -887 l0 -886 60 9 c43 6 60 20 60 47 0 22 8 34 18 29
17 -11 130 141 132 178 0 11 16 17 35 14 22 -4 31 4 24 22 -12 31 64 174 93
174 10 0 18 28 18 61 0 34 9 56 19 50 22 -14 66 58 47 76 -7 7 -2 13 12 13 13
0 19 9 11 21 -7 11 -4 32 7 45 11 13 18 58 15 99 -3 41 1 75 7 75 16 0 62 101
62 134 0 14 10 26 21 26 12 0 15 11 5 25 -22 35 -20 135 3 135 10 0 8 11 -5
24 -28 28 -33 104 -6 87 10 -6 24 5 31 24 7 18 6 27 -2 18 -23 -22 -59 122
-58 230 1 51 -6 89 -15 84 -14 -9 -5 56 17 129 5 14 1 21 -9 15 -21 -13 -47
45 -32 70 6 9 -7 49 -29 88 -22 39 -37 71 -32 71 5 0 -4 24 -19 52 -15 29 -22
68 -15 85 6 18 4 26 -5 19 -20 -19 -88 106 -75 140 5 14 2 24 -8 22 -42 -7
-65 4 -56 29 13 32 -168 257 -193 242 -10 -6 -18 -1 -18 12 0 14 -16 39 -36
57 -20 17 -56 61 -81 97 -25 36 -56 65 -70 65 -13 0 -34 16 -46 36 -12 20 -73
67 -134 104 -61 37 -105 76 -99 87 7 11 2 13 -14 3 -30 -19 -200 68 -200 102
0 19 -57 41 -150 58 -49 9 -150 64 -140 77 5 7 0 5 -13 -5 -24 -21 -117 12
-117 41 0 9 -9 17 -19 17 -11 0 -15 -13 -8 -30 6 -16 1 -30 -11 -30 -12 0 -22
9 -22 20 0 28 -55 25 -65 -4 -5 -17 -41 -13 -129 15 -67 22 -115 44 -106 49
29 18 -108 91 -155 84z m177 -319 c188 -269 220 -337 126 -271 -32 23 -113 69
-179 103 l-122 62 -4 170 c-6 213 -17 216 179 -64z m-242 -374 l0 -228 -160
91 c-88 50 -164 97 -169 105 -8 12 300 261 322 261 4 0 7 -103 7 -229z m235
119 c85 -49 166 -90 180 -90 14 0 25 -9 25 -20 0 -11 -8 -20 -19 -20 -10 0
-92 -49 -183 -110 -90 -60 -166 -110 -169 -110 -7 0 0 440 7 440 3 0 75 -40
159 -90z m507 -305 l91 -53 -150 -98 c-219 -143 -203 -150 -203 95 l0 213 85
-52 c47 -29 126 -76 177 -105z m-317 -305 c-4 -5 -41 10 -81 34 -41 24 -117
67 -169 95 -102 55 -117 81 -59 100 20 6 95 52 165 102 l129 91 11 -206 c6
-113 8 -210 4 -216z m-845 180 c0 -246 3 -242 -117 -162 -48 32 -123 74 -165
93 -96 43 -97 51 -2 104 42 24 116 75 165 113 122 96 119 99 119 -148z m137
183 c29 -21 102 -63 162 -93 l108 -54 -48 -38 c-27 -21 -82 -48 -123 -61 -41
-13 -71 -29 -66 -37 5 -7 -18 -33 -51 -57 l-59 -44 0 210 c0 229 -1 228 77
174z m1133 -393 c0 -253 -4 -259 -111 -178 -38 28 -112 73 -164 100 -114 59
-114 57 -20 106 42 21 125 75 185 120 60 45 109 82 109 82 1 0 1 -103 1 -230z
m326 67 l105 -61 -160 -99 c-87 -54 -165 -107 -171 -117 -31 -51 -41 -3 -44
210 l-3 230 84 -51 c45 -28 130 -79 189 -112z m-1165 -117 c0 -121 -2 -220 -6
-220 -3 0 -39 21 -81 47 -41 26 -123 72 -181 102 l-107 54 167 116 c218 152
207 158 208 -99z m-476 -14 c3 -9 -36 -38 -87 -65 -51 -27 -124 -74 -163 -105
-39 -31 -74 -56 -78 -56 -4 0 -7 95 -7 210 l0 210 165 -89 c90 -49 167 -97
170 -105z m722 21 c135 -75 468 -267 479 -277 3 -3 -37 -30 -90 -61 -52 -31
-163 -105 -246 -164 -82 -60 -184 -126 -225 -147 l-75 -39 0 381 c0 209 5 380
12 380 6 0 71 -33 145 -73z m1043 -249 l0 -241 -75 59 c-41 32 -127 85 -191
117 l-115 58 185 124 c102 68 188 124 191 124 3 1 5 -108 5 -241z m-1726 -271
c-4 -4 -78 33 -164 83 -87 49 -167 94 -179 99 -12 6 -5 21 17 35 20 14 101 71
180 126 l142 101 6 -218 c3 -120 2 -222 -2 -226z m190 369 c58 -35 131 -78
161 -96 l56 -32 -168 -114 c-92 -63 -171 -114 -175 -114 -5 0 -8 95 -8 210 0
116 6 210 14 210 7 0 61 -29 120 -64z m-889 -809 c-4 -501 -11 -656 -30 -662
-20 -7 -25 133 -25 653 0 578 4 662 30 662 27 0 30 -81 25 -653z m1985 433 c0
-121 -4 -220 -8 -220 -5 0 -75 39 -155 86 -81 48 -165 93 -186 101 -36 14 272
245 334 251 8 1 15 -97 15 -218z m-844 -32 c3 -137 -2 -229 -13 -225 -10 4
-95 52 -188 106 l-168 100 171 123 c95 69 177 125 182 126 6 1 13 -103 16
-230z m1095 134 l171 -98 -116 -66 c-64 -36 -144 -86 -178 -112 -34 -25 -65
-46 -70 -46 -4 0 -5 94 -2 210 4 115 10 210 15 210 5 0 85 -44 180 -98z
m-1584 -143 c9 -8 -36 -52 -100 -96 -64 -45 -142 -101 -172 -124 l-55 -42 0
221 0 220 155 -82 c85 -45 163 -89 172 -97z m2253 -699 c0 -680 -4 -780 -30
-780 -26 0 -30 100 -30 780 0 680 4 780 30 780 26 0 30 -100 30 -780z m-1364
321 l-6 -118 -114 73 c-62 41 -143 90 -179 110 l-65 37 99 61 c54 34 135 93
179 130 l80 69 6 -122 c3 -66 3 -174 0 -240z m349 183 c69 -32 98 -64 58 -64
-10 0 -87 -45 -171 -100 -84 -55 -157 -100 -163 -100 -5 0 -9 95 -9 212 l0
212 105 -63 c58 -34 139 -78 180 -97z m595 -84 c0 -224 -2 -239 -35 -219 -30
19 -34 47 -29 191 5 110 0 168 -15 168 -13 0 -21 -59 -21 -159 0 -134 -5 -158
-30 -148 -22 8 -30 43 -30 129 0 65 -9 118 -20 118 -11 0 -20 -45 -20 -99 l0
-100 -75 51 c-41 28 -75 59 -75 68 0 13 324 238 345 240 3 0 5 -108 5 -240z
m-1789 -10 c-1 -224 -12 -261 -64 -209 -11 11 -85 54 -163 95 l-142 75 184
133 c101 74 185 134 185 135 1 0 1 -102 0 -229z m2494 -140 c0 -154 -9 -302
-21 -330 -16 -38 -21 43 -21 330 0 287 5 368 21 330 12 -27 21 -176 21 -330z
m-2241 250 c184 -107 185 -88 -19 -227 l-165 -112 0 175 c0 95 -6 195 -13 221
-17 62 4 56 197 -57z m1030 -350 c1 -126 -5 -230 -13 -230 -29 0 -334 190
-337 210 -2 17 302 240 337 248 6 1 12 -101 13 -228z m320 29 l130 -76 -77
-39 c-42 -22 -126 -72 -187 -112 -60 -40 -114 -72 -120 -72 -5 0 -5 95 0 212
6 116 2 226 -9 245 -11 19 12 10 57 -24 41 -32 134 -92 206 -134z m-1162 -70
c1 -127 -3 -228 -10 -225 -53 25 -362 201 -362 206 0 3 38 29 85 56 47 28 126
82 175 122 50 39 95 72 100 72 6 0 11 -104 12 -231z m-657 91 c77 -44 149 -80
162 -80 50 0 14 -35 -148 -143 l-169 -114 0 209 c0 114 4 208 8 208 5 0 71
-36 147 -80z m1008 -403 c-10 -362 -31 -370 -43 -17 -13 390 -47 380 -60 -18
-7 -222 -17 -311 -35 -317 -19 -6 -25 69 -25 332 0 206 -8 346 -20 353 -13 8
-20 -116 -20 -356 0 -304 -5 -374 -30 -394 -27 -22 -30 25 -30 407 l0 431 135
-77 135 -77 -7 -267z m-788 42 c-6 -110 -14 -205 -19 -210 -11 -11 -336 155
-335 171 1 9 341 239 356 240 4 0 3 -90 -2 -201z m907 -40 c-7 -312 -58 -314
-66 -3 -6 234 -5 241 32 217 33 -22 37 -48 34 -214z m818 -1 l0 -242 -63 53
c-34 29 -109 76 -165 104 -169 85 -169 82 7 190 88 54 165 107 171 117 36 59
50 -2 50 -222z m-1475 125 c138 -77 189 -123 137 -123 -10 0 -87 -50 -172
-111 -85 -61 -156 -108 -157 -105 -10 23 12 437 23 432 8 -3 84 -45 169 -93z
m751 -140 c-9 -204 -56 -189 -56 18 0 145 3 161 31 138 23 -19 29 -57 25 -156z
m112 62 c-1 -14 -3 -51 -5 -83 -6 -111 -63 -93 -63 20 0 85 5 100 35 94 19 -4
34 -18 33 -31z m109 -52 c-4 -3 -23 -16 -42 -31 -31 -24 -35 -21 -35 26 0 48
4 51 42 31 23 -12 38 -24 35 -26z m-786 -253 c-1 -233 -5 -241 -88 -183 -29
21 -105 66 -169 99 l-116 62 176 120 c97 66 181 120 187 121 6 0 11 -98 10
-219z m-472 -18 c-1 -16 -333 -241 -342 -232 -4 3 -4 105 -1 226 l6 219 169
-100 c93 -55 169 -106 168 -113z m1313 -237 c-6 -6 -36 11 -67 38 -55 45 -184
115 -284 152 -46 17 -43 21 70 85 66 38 155 94 199 125 l80 58 6 -224 c3 -123
1 -229 -4 -234z m-1742 205 c0 -115 -2 -210 -4 -210 -13 0 -160 88 -186 111
-17 14 -55 36 -85 47 -77 29 -70 46 49 124 57 37 126 84 155 103 28 19 56 35
61 35 6 0 10 -94 10 -210z m2125 40 c0 -21 -278 -214 -291 -201 -4 4 3 27 16
51 13 24 27 76 32 115 12 96 22 107 84 92 51 -13 52 -11 24 23 -24 30 -13 28
52 -11 46 -27 83 -58 83 -69z m-821 -467 c-8 -4 -71 28 -140 71 -68 43 -142
85 -164 94 -39 15 -38 17 10 49 27 18 104 69 170 113 l120 80 10 -200 c6 -110
3 -203 -6 -207z m-834 155 l0 -243 -55 37 c-46 30 -165 103 -304 184 -21 12 2
35 90 90 66 40 146 95 179 123 89 74 90 71 90 -191z m231 139 c201 -123 195
-95 40 -196 -71 -46 -139 -97 -152 -113 -47 -55 -57 -25 -63 192 -3 121 -3
220 0 220 4 0 83 -46 175 -103z m954 -81 c30 -11 55 -29 55 -38 0 -9 -25 -30
-55 -45 -30 -16 -104 -62 -164 -103 -128 -85 -147 -69 -81 67 83 170 97 176
245 119z m-752 -306 c4 -260 4 -260 -135 -175 -49 30 -123 72 -164 93 -93 48
-93 52 11 107 47 25 126 81 175 124 50 44 95 80 100 80 6 0 11 -103 13 -229z
m251 110 c184 -107 180 -94 50 -174 -57 -36 -132 -83 -166 -106 l-63 -40 7
105 c4 58 7 125 7 149 l1 45 71 -42 c52 -31 78 -36 93 -21 31 31 -2 66 -113
121 -50 25 -91 50 -91 56 0 19 52 -4 204 -93z m-1007 -100 c5 -33 11 -39 23
-20 62 100 117 -213 61 -350 -19 -47 -28 -21 -59 170 -16 103 -17 105 -20 30
-8 -244 -61 -196 -62 57 0 169 38 245 57 113z m195 -256 c-10 -158 -20 -203
-41 -182 -16 16 -35 356 -21 378 42 67 72 -29 62 -196z m895 -55 c-93 -177
-223 -366 -252 -368 -8 -1 -15 84 -15 187 l0 189 75 46 c41 25 120 80 175 121
136 103 141 58 17 -175z m-487 -156 c-1 -69 -35 -111 -60 -73 -22 34 -27 127
-7 146 22 22 67 -28 67 -73z"/>
<path d="M3864 3105 c5 -8 28 -58 53 -110 40 -85 52 -95 109 -93 l64 1 -56 25
c-31 14 -79 63 -107 109 -40 68 -90 122 -63 68z"/>
<path d="M1475 2959 c-5 -894 1 -1016 46 -988 15 9 20 293 17 925 -3 669 2
914 19 920 44 14 24 64 -27 64 l-49 0 -6 -921z"/>
<path d="M4393 3767 c-23 -23 -16 -2051 8 -2043 24 8 45 2056 21 2056 -9 0
-21 -6 -29 -13z"/>
<path d="M1280 3547 c0 -7 0 -271 -1 -585 -1 -695 -3 -642 21 -642 13 0 20
216 20 608 0 468 6 611 25 619 14 5 5 11 -20 11 -25 1 -45 -4 -45 -11z"/>
<path d="M1380 2913 c0 -346 -5 -654 -11 -685 -7 -37 0 -73 19 -98 28 -36 31
30 31 685 1 470 -6 725 -19 725 -13 0 -20 -222 -20 -627z"/>
<path d="M1169 3254 c-22 -57 2 -613 27 -638 19 -19 24 48 24 309 0 304 -18
417 -51 329z"/>
<path d="M1994 1727 c-9 -158 -6 -220 12 -231 18 -11 25 38 30 198 7 283 -26
310 -42 33z"/>
<path d="M4200 1739 c0 -160 4 -183 28 -158 21 23 24 61 11 176 -24 208 -39
201 -39 -18z"/>
<path d="M2539 571 c-23 -23 -26 -73 -4 -67 8 3 37 -8 63 -22 46 -25 103 -34
258 -40 37 -1 62 -9 56 -19 -15 -24 56 -21 72 4 8 12 114 22 260 24 298 4 301
4 287 27 -6 10 0 22 13 27 14 4 -7 25 -45 46 -74 41 -541 58 -593 22 -13 -9
-45 -9 -70 -1 -65 23 -274 22 -297 -1z"/>
<path d="M2303 529 c17 -18 44 -34 59 -36 15 -2 39 -11 53 -20 35 -22 31 -6
-12 44 -21 24 -59 43 -85 43 -42 0 -44 -3 -15 -31z"/>
</g>
</svg>
