<?xml version="1.0" standalone="no"?>
<!DOCTYPE svg PUBLIC "-//W3C//DTD SVG 20010904//EN"
 "http://www.w3.org/TR/2001/REC-SVG-20010904/DTD/svg10.dtd">
<svg version="1.0" xmlns="http://www.w3.org/2000/svg"
 width="150px" height="150px" viewBox="0 0 300.000000 300.000000"
 preserveAspectRatio="xMidYMid meet">
<metadata>
Created by potrace 1.10, written by Peter Selinger 2001-2011
</metadata>
<g transform="translate(0.000000,300.000000) scale(0.100000,-0.100000)"
fill="#FFFFFF" stroke="none">
<path d="M1727 2638 c-15 -11 -41 -39 -57 -63 l-30 -44 -55 6 c-47 5 -63 2
-117 -24 -35 -17 -76 -42 -93 -57 -16 -14 -49 -36 -72 -48 -24 -13 -43 -28
-43 -34 0 -6 -7 -11 -15 -12 -8 -1 -22 -3 -30 -4 -8 -1 -15 -10 -15 -20 0 -11
-5 -16 -10 -13 -6 4 -23 -5 -37 -19 -14 -14 -29 -23 -34 -20 -5 3 -9 0 -9 -5
0 -6 -7 -11 -15 -11 -8 0 -15 -6 -15 -14 0 -7 -8 -16 -17 -19 -10 -2 -26 -8
-35 -12 -16 -7 -18 1 -18 88 0 53 4 99 10 102 20 12 10 26 -10 15 -11 -6 -26
-8 -33 -5 -6 4 -4 0 6 -8 14 -12 17 -31 17 -122 0 -60 -3 -106 -6 -102 -4 3
-12 1 -19 -6 -25 -23 -60 -52 -65 -52 -19 -2 -60 -41 -61 -59 0 -11 -3 -15 -6
-8 -3 8 -13 -2 -26 -25 -15 -28 -22 -62 -25 -128 -3 -50 -9 -93 -16 -97 -6 -4
-57 -7 -113 -7 -57 0 -112 -5 -123 -11 -28 -15 -25 -45 8 -70 15 -12 40 -37
56 -56 l28 -35 -22 -24 c-17 -19 -20 -27 -11 -43 8 -15 24 -21 68 -25 32 -3
71 -5 87 -4 16 1 31 -4 33 -10 3 -10 -12 -13 -56 -13 -48 0 -61 -3 -61 -15 0
-12 13 -15 60 -15 47 0 60 -3 60 -15 0 -12 -13 -15 -57 -15 -52 0 -55 -1 -37
-15 10 -8 36 -15 57 -15 35 0 51 -14 25 -23 -10 -3 -10 -7 -2 -18 6 -8 14 -36
18 -62 11 -90 65 -158 174 -222 32 -19 47 -63 17 -51 -8 3 -15 1 -15 -4 0 -5
-9 -11 -19 -15 -25 -8 -37 -60 -21 -91 22 -40 77 -52 108 -24 32 30 38 67 17
102 -21 35 -15 46 10 18 10 -11 22 -20 26 -20 8 0 127 -74 254 -158 28 -18 78
-47 112 -64 72 -35 142 -39 196 -12 38 20 220 135 227 143 12 16 131 91 143
91 8 0 22 9 31 19 10 11 33 27 52 36 19 9 34 20 34 25 0 6 6 10 14 10 7 0 26
11 42 25 106 93 132 137 141 234 3 31 7 58 9 60 2 2 29 6 59 9 74 6 70 22 -5
22 -48 0 -60 3 -60 16 0 13 11 15 69 12 38 -2 69 1 68 6 -1 5 9 13 23 17 15 4
-11 7 -68 8 -70 1 -93 4 -90 13 3 8 27 13 69 14 100 1 106 2 112 26 4 15 0 26
-13 35 -29 20 -25 38 15 62 19 11 35 26 35 32 0 7 14 24 32 39 l31 27 -21 21
c-12 12 -34 22 -49 23 -16 0 -68 1 -118 2 l-90 2 -1 50 c0 28 -4 72 -8 99 -8
50 -38 111 -49 100 -4 -4 -10 1 -14 12 -10 27 -36 54 -51 54 -7 0 -10 5 -7 10
3 6 -3 10 -14 10 -19 0 -21 6 -23 88 l-2 87 -3 -72 c-2 -40 -8 -73 -13 -73 -6
0 -10 4 -10 10 0 5 -7 7 -17 3 -14 -5 -15 -1 -10 25 4 19 2 34 -5 38 -7 5 -9
2 -5 -9 8 -21 -6 -29 -38 -21 -25 6 -25 7 -26 113 0 63 -3 98 -8 86 -5 -11 -7
-38 -6 -60 3 -49 -5 -105 -15 -105 -4 0 -19 10 -34 21 -20 15 -24 25 -17 32
27 27 8 64 -114 226 -94 125 -93 124 -128 99z m127 -148 c53 -76 101 -142 106
-145 19 -12 10 -26 -12 -20 -30 9 -136 63 -169 86 -25 18 -26 17 -85 -19 -55
-35 -153 -76 -161 -69 -1 2 21 35 50 73 28 39 77 107 107 152 30 45 58 82 61
82 4 0 50 -63 103 -140z m-244 13 c-1 -15 -27 -43 -40 -43 -21 0 -92 -45 -315
-199 -310 -214 -341 -238 -359 -275 -14 -29 -16 -80 -16 -348 0 -283 2 -317
18 -348 14 -27 70 -70 253 -192 344 -230 382 -252 424 -245 21 3 94 46 187
109 84 56 219 147 300 201 203 135 190 101 186 494 -3 294 -4 310 -24 342 -14
22 -73 65 -175 131 -114 72 -155 103 -157 120 -2 12 0 26 5 31 6 6 73 -31 169
-92 185 -117 189 -121 218 -174 20 -39 21 -52 21 -370 0 -319 -1 -331 -22
-370 -11 -22 -32 -50 -45 -61 -12 -12 -154 -109 -314 -216 -188 -127 -303
-198 -327 -202 -20 -4 -54 -2 -75 4 -21 5 -154 85 -295 177 -332 218 -341 224
-374 274 l-28 42 -3 331 c-3 285 -1 336 13 373 25 64 29 68 445 353 91 62 185
123 209 136 41 23 121 33 121 17z m-95 -143 c-3 -10 -1 -29 5 -40 10 -19 19
-21 63 -18 l52 3 3 -62 c4 -76 -2 -78 -81 -23 -31 22 -68 40 -81 40 -28 0
-171 -93 -186 -120 -6 -10 -10 -53 -10 -95 0 -72 -1 -76 -20 -70 -28 9 -121
-40 -177 -91 l-44 -41 2 -76 c2 -42 1 -78 -2 -80 -4 -3 -97 -49 -111 -55 -14
-6 -9 310 5 338 13 26 101 94 292 225 64 44 150 104 192 133 81 56 108 65 98
32z m289 -13 l39 -33 -3 -94 c-1 -52 -5 -178 -9 -279 l-6 -184 -27 24 -27 24
8 100 c12 143 8 405 -6 430 -10 16 -12 -38 -13 -257 0 -261 -1 -277 -19 -283
-10 -3 -26 -14 -36 -25 -10 -11 -21 -20 -25 -20 -5 0 -8 128 -7 285 l0 286 41
29 c22 17 42 30 45 30 4 0 23 -15 45 -33z m-241 -171 l77 -49 0 -255 0 -254
-22 7 c-45 14 -86 17 -92 6 -4 -6 -14 -11 -22 -11 -32 0 -53 -42 -54 -106 0
-33 -3 -63 -6 -67 -3 -3 -20 3 -39 14 l-32 19 -53 -35 c-29 -20 -55 -34 -57
-31 -6 6 -6 31 1 166 l6 125 57 52 c32 29 61 52 66 53 4 0 7 -64 7 -142 0 -78
3 -139 6 -135 11 11 19 86 24 241 l3 89 -54 33 c-50 32 -54 38 -61 82 -3 26
-7 70 -7 97 l-1 50 82 53 c45 29 85 51 88 50 3 -2 41 -25 83 -52z m375 -25 c2
-5 -11 -17 -28 -26 -29 -15 -31 -15 -38 6 -5 12 -7 33 -4 46 l4 23 32 -19 c17
-11 32 -24 34 -30z m87 -530 l0 -440 -27 -16 c-16 -9 -28 -13 -29 -8 -2 15 1
187 7 503 6 292 7 317 26 348 11 18 18 35 16 37 -2 3 -20 -6 -38 -19 l-34 -23
-2 -437 -1 -437 -34 -24 c-18 -14 -37 -25 -41 -25 -4 0 -8 219 -8 488 l0 487
43 26 42 26 40 -23 40 -24 0 -439z m99 417 c27 -18 56 -44 65 -57 15 -23 15
-23 -9 -15 -28 9 -63 9 -102 -1 -26 -7 -28 -5 -28 26 0 40 10 79 19 79 3 0 28
-15 55 -32z m-806 -142 c39 -27 72 -52 71 -55 0 -3 -34 -28 -75 -55 l-74 -48
1 -182 c0 -99 4 -217 10 -261 5 -44 11 -105 14 -135 3 -30 8 -60 10 -67 11
-32 -25 -19 -125 48 -61 40 -110 76 -110 81 0 4 -7 8 -15 8 -9 0 -36 19 -60
41 l-45 42 0 132 0 132 53 35 52 35 47 -31 c26 -17 47 -35 47 -41 0 -5 -21
-23 -47 -40 -26 -16 -46 -33 -44 -37 1 -5 3 -65 3 -135 1 -96 3 -118 10 -88 4
22 8 75 8 118 1 74 2 79 36 115 22 24 35 32 35 22 1 -8 3 -46 5 -85 3 -38 8
-90 13 -115 l8 -45 7 64 c4 35 7 106 7 157 l0 93 -45 31 -46 32 2 88 2 89 81
55 c44 30 83 54 86 53 3 -1 38 -24 78 -51z m856 30 c49 -26 48 -30 -11 -60
l-33 -17 0 -298 0 -299 -34 -26 c-19 -14 -37 -26 -40 -26 -9 0 -7 684 3 698 6
10 54 46 68 51 1 1 22 -10 47 -23z m24 -623 c-6 -8 -19 -18 -29 -23 -16 -9
-17 -2 -14 113 13 388 15 421 33 447 16 24 17 14 20 -249 2 -199 -1 -277 -10
-288z m-1410 466 c-2 -6 -7 -10 -11 -10 -4 1 -59 1 -122 1 -70 0 -115 4 -115
10 0 6 49 10 126 10 85 0 125 -3 122 -11z m1802 1 c0 -6 -48 -10 -125 -10 -77
0 -125 4 -125 10 0 6 48 10 125 10 77 0 125 -4 125 -10z m-750 -51 c0 -4 -13
-12 -30 -19 -16 -7 -35 -19 -41 -27 -9 -10 -12 -102 -12 -343 l1 -329 -39 -25
c-21 -14 -41 -26 -44 -26 -3 0 -5 173 -5 384 l0 385 43 23 42 24 42 -21 c23
-11 42 -23 43 -26z m-1052 -10 c-2 -7 -37 -11 -93 -11 -56 0 -91 4 -93 11 -2
7 28 11 93 11 65 0 95 -4 93 -11z m1746 2 c4 -5 2 -11 -4 -13 -21 -7 -190 4
-190 13 0 12 187 12 194 0z m-700 -348 l5 -311 -24 -16 c-47 -31 -48 -29 -41
192 10 319 16 404 33 430 8 13 16 22 18 20 2 -1 6 -143 9 -315z m-1044 287 c0
-6 -28 -10 -65 -10 -37 0 -65 4 -65 10 0 6 28 10 65 10 37 0 65 -4 65 -10z
m1680 0 c0 -6 -28 -10 -65 -10 -37 0 -65 4 -65 10 0 6 28 10 65 10 37 0 65 -4
65 -10z m-870 -62 c22 -13 40 -26 40 -30 0 -4 -15 -15 -32 -24 -18 -9 -36 -22
-40 -28 -8 -12 -11 -512 -3 -505 2 3 7 61 11 130 14 303 19 349 42 372 l22 21
1 -209 c0 -231 5 -350 13 -363 8 -13 -6 -28 -47 -51 -47 -26 -49 -26 -92 2
l-35 22 0 320 0 320 38 21 c20 12 38 22 40 23 2 1 21 -9 42 -21z m-810 2 c0
-6 -35 -10 -84 -10 -47 0 -88 5 -91 10 -4 6 27 10 84 10 54 0 91 -4 91 -10z
m1710 0 c0 -6 -33 -10 -80 -10 -47 0 -80 4 -80 10 0 6 33 10 80 10 47 0 80 -4
80 -10z m-1050 -202 c0 -4 -18 -17 -40 -28 l-40 -20 1 -118 c0 -105 14 -238
18 -172 1 14 4 75 8 135 5 103 22 165 45 165 4 0 9 -62 10 -137 1 -76 3 -163
4 -193 1 -30 1 -61 -2 -68 -2 -8 -30 5 -83 40 l-80 53 0 171 -1 172 42 25 43
25 37 -22 c21 -11 38 -24 38 -28z m-425 -438 l-29 -30 -27 26 -28 27 26 34 26
34 31 -30 30 -31 -29 -30z"/>
<path d="M1760 2509 c1 -64 2 -72 14 -56 10 13 11 29 4 70 -5 28 -12 54 -14
56 -2 2 -4 -29 -4 -70z"/>
<path d="M1192 2088 c-17 -17 -14 -45 5 -52 16 -7 43 16 43 36 0 15 -37 27
-48 16z m32 -29 c-8 -14 -34 -11 -34 4 0 8 3 17 7 20 9 9 34 -13 27 -24z"/>
<path d="M1092 2048 c-16 -16 -15 -43 1 -55 29 -23 44 -21 60 7 16 26 16 30 1
44 -18 19 -45 21 -62 4z m49 -14 c11 -14 10 -18 -6 -30 -16 -12 -21 -12 -34 0
-12 12 -12 18 -1 30 16 20 24 20 41 0z"/>
<path d="M1545 2067 c-39 -24 -69 -47 -67 -50 1 -4 3 -71 3 -149 2 -147 15
-135 19 17 3 95 10 126 29 132 23 9 101 73 101 84 0 16 -13 10 -85 -34z"/>
<path d="M1340 2093 c0 -24 104 -91 114 -74 3 5 -9 18 -27 29 -19 11 -46 27
-60 37 -15 9 -27 13 -27 8z"/>
<path d="M1116 1789 c17 -19 84 -59 99 -59 20 0 -3 23 -49 49 -63 36 -76 39
-50 10z"/>
<path d="M940 1544 c20 -27 42 -44 57 -44 25 0 13 16 -29 40 -38 21 -41 21
-28 4z"/>
<path d="M975 990 c-4 -7 -3 -16 3 -22 14 -14 45 -2 40 15 -6 16 -34 21 -43 7z"/>
<path d="M2560 1610 c-11 -7 -2 -10 33 -10 26 0 47 -4 47 -10 0 -5 -21 -10
-46 -10 -27 0 -43 -4 -39 -10 9 -15 58 -12 80 4 16 12 17 16 6 30 -15 18 -58
21 -81 6z"/>
<path d="M2381 1274 c-42 -35 -42 -75 1 -115 38 -34 60 -32 101 12 35 37 34
50 -4 94 -37 42 -57 44 -98 9z m78 -26 l30 -33 -32 -33 -31 -32 -33 32 -33 32
32 33 c18 18 33 33 35 33 2 0 16 -15 32 -32z"/>
<path d="M2401 1227 c-8 -11 -6 -18 8 -31 16 -15 20 -15 31 -1 15 18 7 45 -13
45 -8 0 -20 -6 -26 -13z"/>
<path d="M2110 1030 c0 -5 7 -10 15 -10 9 0 15 -9 15 -25 0 -19 -5 -25 -22
-25 l-22 0 22 -16 c12 -8 22 -23 22 -33 0 -11 7 -21 15 -25 10 -3 15 1 15 13
0 10 -7 21 -15 25 -8 3 -15 12 -15 21 0 9 7 18 15 21 8 4 15 15 15 26 0 10 -4
17 -9 14 -5 -3 -11 1 -15 9 -6 17 -36 21 -36 5z"/>
<path d="M1445 470 c-30 -4 25 -7 135 -7 104 0 172 3 155 7 -37 9 -222 9 -290
0z"/>
<path d="M1400 410 c37 -11 320 -12 355 -1 21 6 -35 9 -175 9 -113 0 -194 -3
-180 -8z"/>
</g>
</svg>
